<svg width="15" height="16" viewBox="0 0 15 16" fill="none" xmlns="http://www.w3.org/2000/svg">
<path d="M13.1033 2.66679C13.0481 2.66055 12.9924 2.66055 12.9372 2.66679H1.58877C1.51604 2.66802 1.44379 2.67998 1.37396 2.70235L7.23055 9.0979L13.1033 2.66679Z" fill="#E8C300"/>
<path d="M13.7032 3.28418L7.80202 9.72862C7.65015 9.89418 7.4447 9.98711 7.23055 9.98711C7.0164 9.98711 6.81095 9.89418 6.65908 9.72862L0.810598 3.33307C0.792618 3.40553 0.783085 3.4802 0.782227 3.55529V12.4442C0.782227 12.6799 0.867629 12.906 1.01965 13.0727C1.17166 13.2394 1.37784 13.3331 1.59283 13.3331H12.9412C13.1562 13.3331 13.3624 13.2394 13.5144 13.0727C13.6664 12.906 13.7518 12.6799 13.7518 12.4442V3.55529C13.7486 3.46269 13.7322 3.37122 13.7032 3.28418ZM2.14809 12.4442H1.58472V11.8086L4.53125 8.60418L5.10273 9.23085L2.14809 12.4442ZM12.9331 12.4442H12.3657L9.41107 9.23085L9.98254 8.60418L12.9291 11.8086L12.9331 12.4442Z" fill="#E8C300"/>
</svg>
